<svg xmlns="http://www.w3.org/2000/svg" style="display:none;">
    <defs>
        <symbol id="icon-home" viewBox="0 0 24 24" fill="none" stroke="currentColor" stroke-width="2">
            <path d="M3 9l9-7 9 7v11a2 2 0 0 1-2 2H5a2 2 0 0 1-2-2z"></path>
            <polyline points="9 22 9 12 15 12 15 22"></polyline>
        </symbol>
        <symbol id="icon-user" viewBox="0 0 24 24" fill="none" stroke="currentColor" stroke-width="2">
            <path d="M20 21v-2a4 4 0 0 0-4-4H8a4 4 0 0 0-4 4v2"></path>
            <circle cx="12" cy="7" r="4"></circle>
        </symbol>
        <symbol id="icon-settings" viewBox="0 0 24 24" fill="none" stroke="currentColor" stroke-width="2">
            <path d="M12.22 2h-.44a2 2 0 0 0-2 2v.18a2 2 0 0 1-1 1.73l-.43.25a2 2 0 0 1-2 0l-.15-.08a2 2 0 0 0-2.73.73l-.22.38a2 2 0 0 0 .73 2.73l.15.1a2 2 0 0 1 1 1.72v.51a2 2 0 0 1-1 1.74l-.15.09a2 2 0 0 0-.73 2.73l.22.38a2 2 0 0 0 2.73.73l.15-.08a2 2 0 0 1 2 0l.43.25a2 2 0 0 1 1 1.73V20a2 2 0 0 0 2 2h.44a2 2 0 0 0 2-2v-.18a2 2 0 0 1 1-1.73l.43-.25a2 2 0 0 1 2 0l.15.08a2 2 0 0 0 2.73-.73l.22-.39a2 2 0 0 0-.73-2.73l-.15-.08a2 2 0 0 1-1-1.74v-.5a2 2 0 0 1 1-1.74l.15-.09a2 2 0 0 0 .73-2.73l-.22-.38a2 2 0 0 0-2.73-.73l-.15.08a2 2 0 0 1-2 0l-.43-.25a2 2 0 0 1-1-1.73V4a2 2 0 0 0-2-2z"></path>
            <circle cx="12" cy="12" r="3"></circle>
        </symbol>
        <symbol id="icon-menu" viewBox="0 0 24 24" fill="none" stroke="currentColor" stroke-width="2">
            <line x1="3" y1="12" x2="21" y2="12"></line>
            <line x1="3" y1="6" x2="21" y2="6"></line>
            <line x1="3" y1="18" x2="21" y2="18"></line>
        </symbol>
        <symbol id="icon-x" viewBox="0 0 24 24" fill="none" stroke="currentColor" stroke-width="2">
            <line x1="18" y1="6" x2="6" y2="18"></line>
            <line x1="6" y1="6" x2="18" y2="18"></line>
        </symbol>
        <symbol id="icon-search" viewBox="0 0 24 24" fill="none" stroke="currentColor" stroke-width="2">
            <circle cx="11" cy="11" r="8"></circle>
            <line x1="21" y1="21" x2="16.65" y2="16.65"></line>
        </symbol>
        <symbol id="icon-mail" viewBox="0 0 24 24" fill="none" stroke="currentColor" stroke-width="2">
            <path d="M4 4h16c1.1 0 2 .9 2 2v12c0 1.1-.9 2-2 2H4c-1.1 0-2-.9-2-2V6c0-1.1.9-2 2-2z"></path>
            <polyline points="22,6 12,13 2,6"></polyline>
        </symbol>
        <symbol id="icon-lock" viewBox="0 0 24 24" fill="none" stroke="currentColor" stroke-width="2">
            <rect x="3" y="11" width="18" height="11" rx="2" ry="2"></rect>
            <path d="M7 11V7a5 5 0 0 1 10 0v4"></path>
        </symbol>
        <symbol id="icon-unlock" viewBox="0 0 24 24" fill="none" stroke="currentColor" stroke-width="2">
            <rect x="3" y="11" width="18" height="11" rx="2" ry="2"></rect>
            <path d="M15 11V6a3 3 0 0 0-6 0v5"></path>
        </symbol>
        <symbol id="icon-eye" viewBox="0 0 24 24" fill="none" stroke="currentColor" stroke-width="2">
            <path d="M1 12s4-8 11-8 11 8 11 8-4 8-11 8-11-8-11-8z"></path>
            <circle cx="12" cy="12" r="3"></circle>
        </symbol>
        <symbol id="icon-eye-off" viewBox="0 0 24 24" fill="none" stroke="currentColor" stroke-width="2">
            <path d="M17.94 17.94A10.07 10.07 0 0 1 12 20c-7 0-11-8-11-8a18.45 18.45 0 0 1 5.06-5.94M9.9 4.24A9.12 9.12 0 0 1 12 4c7 0 11 8 11 8a18.5 18.5 0 0 1-2.16 3.19m-6.72-1.07a3 3 0 1 1 4.24 4.24"></path>
            <line x1="1" y1="1" x2="23" y2="23"></line>
        </symbol>
        <symbol id="icon-edit" viewBox="0 0 24 24" fill="none" stroke="currentColor" stroke-width="2">
            <path d="M11 4H4a2 2 0 0 0-2 2v14a2 2 0 0 0 2 2h14a2 2 0 0 0 2-2v-7"></path>
            <path d="M18.5 2.5a2.121 2.121 0 0 1 3 3L12 15l-4 1 1-4 9.5-9.5z"></path>
        </symbol>
        <symbol id="icon-trash" viewBox="0 0 24 24" fill="none" stroke="currentColor" stroke-width="2">
            <polyline points="3 6 5 6 21 6"></polyline>
            <path d="M19 6v14a2 2 0 0 1-2 2H7a2 2 0 0 1-2-2V6m3 0V4a2 2 0 0 1 2-2h4a2 2 0 0 1 2 2v2"></path>
        </symbol>
        <symbol id="icon-plus" viewBox="0 0 24 24" fill="none" stroke="currentColor" stroke-width="2">
            <line x1="12" y1="5" x2="12" y2="19"></line>
            <line x1="5" y1="12" x2="19" y2="12"></line>
        </symbol>
        <symbol id="icon-minus" viewBox="0 0 24 24" fill="none" stroke="currentColor" stroke-width="2">
            <line x1="5" y1="12" x2="19" y2="12"></line>
        </symbol>
        <symbol id="icon-check" viewBox="0 0 24 24" fill="none" stroke="currentColor" stroke-width="2">
            <polyline points="20 6 9 17 4 12"></polyline>
        </symbol>
        <symbol id="icon-alert" viewBox="0 0 24 24" fill="none" stroke="currentColor" stroke-width="2">
            <path d="M10.29 3.86L1.82 18a2 2 0 0 0 1.71 3h16.94a2 2 0 0 0 1.71-3L13.71 3.86a2 2 0 0 0-3.42 0z"></path>
            <line x1="12" y1="9" x2="12" y2="13"></line>
            <line x1="12" y1="17" x2="12.01" y2="17"></line>
        </symbol>
        <symbol id="icon-info" viewBox="0 0 24 24" fill="none" stroke="currentColor" stroke-width="2">
            <circle cx="12" cy="12" r="10"></circle>
            <line x1="12" y1="16" x2="12" y2="12"></line>
            <line x1="12" y1="8" x2="12.01" y2="8"></line>
        </symbol>
        <symbol id="icon-success" viewBox="0 0 24 24" fill="none" stroke="currentColor" stroke-width="2">
            <path d="M22 11.08V12a10 10 0 1 1-5.93-9.14"></path>
            <polyline points="22 4 12 14.01 9 11.01"></polyline>
        </symbol>
        <symbol id="icon-warning" viewBox="0 0 24 24" fill="none" stroke="currentColor" stroke-width="2">
            <path d="M12 9v2m0 4h.01m-6.938 4h13.856c1.54 0 2.502-1.667 1.732-3L13.732 4c-.77-1.333-2.694-1.333-3.464 0L3.34 16c-.77 1.333.192 3 1.732 3z"></path>
        </symbol>
        <symbol id="icon-error" viewBox="0 0 24 24" fill="none" stroke="currentColor" stroke-width="2">
            <circle cx="12" cy="12" r="10"></circle>
            <line x1="15" y1="9" x2="9" y2="15"></line>
            <line x1="9" y1="9" x2="15" y2="15"></line>
        </symbol>
        <symbol id="icon-arrow-right" viewBox="0 0 24 24" fill="none" stroke="currentColor" stroke-width="2">
            <line x1="5" y1="12" x2="19" y2="12"></line>
            <polyline points="12 5 19 12 12 19"></polyline>
        </symbol>
        <symbol id="icon-arrow-left" viewBox="0 0 24 24" fill="none" stroke="currentColor" stroke-width="2">
            <line x1="19" y1="12" x2="5" y2="12"></line>
            <polyline points="12 19 5 12 12 5"></polyline>
        </symbol>
        <symbol id="icon-arrow-up" viewBox="0 0 24 24" fill="none" stroke="currentColor" stroke-width="2">
            <line x1="12" y1="19" x2="12" y2="5"></line>
            <polyline points="5 12 12 5 19 12"></polyline>
        </symbol>
        <symbol id="icon-arrow-down" viewBox="0 0 24 24" fill="none" stroke="currentColor" stroke-width="2">
            <line x1="12" y1="5" x2="12" y2="19"></line>
            <polyline points="19 12 12 19 5 12"></polyline>
        </symbol>
        <symbol id="icon-calendar" viewBox="0 0 24 24" fill="none" stroke="currentColor" stroke-width="2">
            <rect x="3" y="4" width="18" height="18" rx="2" ry="2"></rect>
            <line x1="16" y1="2" x2="16" y2="6"></line>
            <line x1="8" y1="2" x2="8" y2="6"></line>
            <line x1="3" y1="10" x2="21" y2="10"></line>
        </symbol>
        <symbol id="icon-clock" viewBox="0 0 24 24" fill="none" stroke="currentColor" stroke-width="2">
            <circle cx="12" cy="12" r="10"></circle>
            <polyline points="12 6 12 12 16 14"></polyline>
        </symbol>
        <symbol id="icon-download" viewBox="0 0 24 24" fill="none" stroke="currentColor" stroke-width="2">
            <path d="M21 15v4a2 2 0 0 1-2 2H5a2 2 0 0 1-2-2v-4"></path>
            <polyline points="7 10 12 15 17 10"></polyline>
            <line x1="12" y1="15" x2="12" y2="3"></line>
        </symbol>
        <symbol id="icon-upload" viewBox="0 0 24 24" fill="none" stroke="currentColor" stroke-width="2">
            <path d="M21 15v4a2 2 0 0 1-2 2H5a2 2 0 0 1-2-2v-4"></path>
            <polyline points="12 10 7 15 12 20"></polyline>
            <line x1="12" y1="10" x2="12" y2="21"></line>
        </symbol>
        <symbol id="icon-share" viewBox="0 0 24 24" fill="none" stroke="currentColor" stroke-width="2">
            <path d="M18 2h-3a5 5 0 0 0-5 5v4H7v6h6v-6h4l1 6h3l-1-6h4V7a5 5 0 0 0-5-5z"></path>
        </symbol>
        <symbol id="icon-star" viewBox="0 0 24 24" fill="none" stroke="currentColor" stroke-width="2">
            <polygon points="12 2 15.09 8.26 22 9.27 17 14.14 18.18 21.02 12 17.77 5.82 21.02 7 14.14 2 9.27 8.91 8.26 12 2"></polygon>
        </symbol>
        <symbol id="icon-heart" viewBox="0 0 24 24" fill="none" stroke="currentColor" stroke-width="2">
            <path d="M20.84 4.61a5.5 5.5 0 0 0-7.78 0L12 5.67l-1.06-1.06a5.5 5.5 0 0 0-7.78 7.78l1.06 1.06L12 21.23l7.78-7.78 1.06-1.06a5.5 5.5 0 0 0 0-7.78z"></path>
        </symbol>
        <symbol id="icon-link" viewBox="0 0 24 24" fill="none" stroke="currentColor" stroke-width="2">
            <path d="M10 13a5 5 0 0 0 7.54.54l3-3a5 5 0 0 0-7.07-7.07l-1.72 1.71"></path>
            <path d="M14 11a5 5 0 0 0-7.54-.54l-3 3a5 5 0 0 0 7.07 7.07l1.71-1.71"></path>
        </symbol>
        <symbol id="icon-image" viewBox="0 0 24 24" fill="none" stroke="currentColor" stroke-width="2">
            <rect x="3" y="3" width="18" height="18" rx="2" ry="2"></rect>
            <circle cx="8.5" cy="8.5" r="1.5"></circle>
            <polyline points="21 15 16 10 5 21"></polyline>
        </symbol>
        <symbol id="icon-video" viewBox="0 0 24 24" fill="none" stroke="currentColor" stroke-width="2">
            <polygon points="23 7 16 12 23 17 23 7"></polygon>
            <rect x="1" y="5" width="15" height="14" rx="2" ry="2"></rect>
        </symbol>
        <symbol id="icon-music" viewBox="0 0 24 24" fill="none" stroke="currentColor" stroke-width="2">
            <path d="M9 18V5l12-2v13"></path>
            <circle cx="6" cy="18" r="3"></circle>
            <circle cx="18" cy="16" r="3"></circle>
        </symbol>
        <symbol id="icon-folder" viewBox="0 0 24 24" fill="none" stroke="currentColor" stroke-width="2">
            <path d="M22 19a2 2 0 0 1-2 2H4a2 2 0 0 1-2-2V5a2 2 0 0 1 2-2h5l2 3h9a2 2 0 0 1 2 2z"></path>
        </symbol>
        <symbol id="icon-file" viewBox="0 0 24 24" fill="none" stroke="currentColor" stroke-width="2">
            <path d="M14 2H6a2 2 0 0 0-2 2v16a2 2 0 0 0 2 2h12a2 2 0 0 0 2-2V8z"></path>
            <polyline points="14 2 14 8 20 8"></polyline>
            <line x1="16" y1="13" x2="8" y2="13"></line>
            <line x1="16" y1="17" x2="8" y2="17"></line>
            <polyline points="10 9 9 9 8 9"></polyline>
        </symbol>
        <symbol id="icon-phone" viewBox="0 0 24 24" fill="none" stroke="currentColor" stroke-width="2">
            <path d="M22 16.92v3a2 2 0 0 1-2.18 2 19.79 19.79 0 0 1-8.63-3.07 19.5 19.5 0 0 1-6-6 19.79 19.79 0 0 1-3.07-8.67A2 2 0 0 1 4.11 2h3a2 2 0 0 1 2 1.72 12.84 12.84 0 0 0 .7 2.81 2 2 0 0 1-.45 2.11L8.09 9.91a16 16 0 0 0 6 6l1.27-1.27a2 2 0 0 1 2.11-.45 12.84 12.84 0 0 0 2.81.7A2 2 0 0 1 22 16.92z"></path>
        </symbol>
        <symbol id="icon-map" viewBox="0 0 24 24" fill="none" stroke="currentColor" stroke-width="2">
            <polygon points="1 6 1 22 8 18 16 22 23 18 23 2 16 6 8 2 1 6"></polygon>
            <line x1="8" y1="2" x2="8" y2="18"></line>
            <line x1="16" y1="6" x2="16" y2="22"></line>
        </symbol>
        <symbol id="icon-wifi" viewBox="0 0 24 24" fill="none" stroke="currentColor" stroke-width="2">
            <path d="M12 20c-3.86 0-7-3.14-7-7s3.14-7 7-7 7 3.14 7 7-3.14 7-7 7z"></path>
            <path d="M12 2c-2.76 0-5 2.24-5 5s2.24 5 5 5 5-2.24 5-5-2.24-5-5-5z"></path>
            <circle cx="12" cy="12" r="3"></circle>
        </symbol>
        <symbol id="icon-battery" viewBox="0 0 24 24" fill="none" stroke="currentColor" stroke-width="2">
            <rect x="1" y="6" width="18" height="12" rx="2" ry="2"></rect>
            <path d="M23 13h-2"></path>
        </symbol>
        <symbol id="icon-signal" viewBox="0 0 24 24" fill="none" stroke="currentColor" stroke-width="2">
            <path d="M2 20h20"></path>
            <path d="M6 16h12"></path>
            <path d="M10 12h8"></path>
            <path d="M14 8h4"></path>
        </symbol>
        <symbol id="icon-book" viewBox="0 0 24 24" fill="none" stroke="currentColor" stroke-width="2">
            <path d="M4 19.5A2.5 2.5 0 0 1 6.5 17H20"></path>
            <path d="M6.5 2H20v20H6.5A2.5 2.5 0 0 1 4 19.5v-15A2.5 2.5 0 0 1 6.5 2z"></path>
        </symbol>
        <symbol id="icon-doc" viewBox="0 0 24 24" fill="none" stroke="currentColor" stroke-width="2">
            <path d="M14 2H6a2 2 0 0 0-2 2v16a2 2 0 0 0 2 2h12a2 2 0 0 0 2-2V8z"></path>
            <polyline points="14 2 14 8 20 8"></polyline>
        </symbol>
        <symbol id="icon-newspaper" viewBox="0 0 24 24" fill="none" stroke="currentColor" stroke-width="2">
            <path d="M19 20H5a2 2 0 0 1-2-2V6a2 2 0 0 1 2-2h10a2 2 0 0 1 2 2v1m2 13a2 2 0 0 1-2-2V7m2 13a2 2 0 0 0 2-2V9a2 2 0 0 0-2-2h-2"></path>
            <path d="M4 7h5"></path>
            <path d="M4 11h5"></path>
            <path d="M4 15h5"></path>
            <path d="M11 7h8"></path>
            <path d="M11 11h8"></path>
            <path d="M11 15h8"></path>
        </symbol>
        <symbol id="icon-gift" viewBox="0 0 24 24" fill="none" stroke="currentColor" stroke-width="2">
            <path d="M20 12v8H4v-8M2 7h20l-10 4L2 7z"></path>
            <circle cx="12" cy="7" r="3"></circle>
        </symbol>
        <symbol id="icon-lightbulb" viewBox="0 0 24 24" fill="none" stroke="currentColor" stroke-width="2">
            <path d="M2 12h1"></path>
            <path d="M21 12h1"></path>
            <path d="M12 2v1"></path>
            <path d="M12 21v1"></path>
            <path d="M4.22 4.22l.71.71"></path>
            <path d="M19.78 4.22l-.71.71"></path>
            <path d="M12 21v1"></path>
            <path d="M17 14h1a2 2 0 0 1 2 2v3a1 1 0 0 1-1 1h-9a1 1 0 0 1-1-1v-3a2 2 0 0 1 2-2h1"></path>
            <path d="M9.5 6.5a3.5 3.5 0 0 1 5 5"></path>
        </symbol>
        <symbol id="icon-package" viewBox="0 0 24 24" fill="none" stroke="currentColor" stroke-width="2">
            <path d="M12.89 3.22h0a2 2 0 0 1 2.22 0L20 8l-7 4-7-4 4.89-2.78a2 2 0 0 1 2.22 0z"></path>
            <path d="M3.5 14.5L12 20l8.5-5.5"></path>
            <path d="M12 8v12"></path>
        </symbol>
        <symbol id="icon-layers" viewBox="0 0 24 24" fill="none" stroke="currentColor" stroke-width="2">
            <path d="M12 2L2 7l10 5 10-5z"></path>
            <path d="M2 17l10 5 10-5"></path>
            <path d="M2 12l10 5 10-5"></path>
        </symbol>
        <symbol id="icon-shopping-cart" viewBox="0 0 24 24" fill="none" stroke="currentColor" stroke-width="2">
            <circle cx="9" cy="21" r="1"></circle>
            <circle cx="20" cy="21" r="1"></circle>
            <path d="M1 1h4l2.68 13.39a2 2 0 0 0 2 1.61h9.72a2 2 0 0 0 2-1.61L23 6H6"></path>
        </symbol>
        <symbol id="icon-bag" viewBox="0 0 24 24" fill="none" stroke="currentColor" stroke-width="2">
            <path d="M6 2h12a2 2 0 0 1 2 2v15a2 2 0 0 1-2 2H6a2 2 0 0 1-2-2V4a2 2 0 0 1 2-2z"></path>
            <path d="M6 2V0h12v2"></path>
            <path d="M12 14l-3-3"></path>
            <path d="M12 14l3-3"></path>
        </symbol>
        <symbol id="icon-thumbs-up" viewBox="0 0 24 24" fill="none" stroke="currentColor" stroke-width="2">
            <path d="M7 10v12h13v-8l-3-4h-5z"></path>
            <path d="M2 10c0 2 2 4 4 4h4v-12H6a4 4 0 0 0-4 4z"></path>
        </symbol>
        <symbol id="icon-refresh" viewBox="0 0 24 24" fill="none" stroke="currentColor" stroke-width="2">
            <polyline points="23 4 23 10 17 10"></polyline>
            <path d="M20.49 15A9 9 0 1 1 5 5.5"></path>
        </symbol>
        <symbol id="icon-filter" viewBox="0 0 24 24" fill="none" stroke="currentColor" stroke-width="2">
            <path d="M22 3H2l8 9.46V19l4 2v-8.54L22 3z"></path>
        </symbol>
        <symbol id="icon-zap" viewBox="0 0 24 24" fill="none" stroke="currentColor" stroke-width="2">
            <path d="M13 2L3 14h9l-1 8 10-12h-9l1-8z"></path>
        </symbol>
        <symbol id="icon-award" viewBox="0 0 24 24" fill="none" stroke="currentColor" stroke-width="2">
            <circle cx="12" cy="8" r="6"></circle>
            <path d="M15.477 12.89 17 22l-5-3-5 3 1.523-9.11"></path>
        </symbol>
        <symbol id="icon-trending-up" viewBox="0 0 24 24" fill="none" stroke="currentColor" stroke-width="2">
            <polyline points="23 6 13.5 15.5 8.5 10.5 1 18"></polyline>
            <polyline points="17 6 23 6 23 12"></polyline>
        </symbol>
        <symbol id="icon-users" viewBox="0 0 24 24" fill="none" stroke="currentColor" stroke-width="2">
            <path d="M17 21v-2a4 4 0 0 0-4-4H5a4 4 0 0 0-4 4v2"></path>
            <circle cx="9" cy="7" r="4"></circle>
            <path d="M23 21v-2a4 4 0 0 0-3-3.87"></path>
            <path d="M16 3.13a4 4 0 0 1 0 7.75"></path>
        </symbol>
        <symbol id="icon-user-check" viewBox="0 0 24 24" fill="none" stroke="currentColor" stroke-width="2">
            <path d="M16 21v-2a4 4 0 0 0-4-4H5a4 4 0 0 0-4 4v2"></path>
            <circle cx="8.5" cy="7" r="4"></circle>
            <polyline points="17 11 19 13 23 9"></polyline>
        </symbol>
        <symbol id="icon-buildings" viewBox="0 0 24 24" fill="none" stroke="currentColor" stroke-width="2">
            <rect x="3" y="3" width="18" height="18" rx="2"></rect>
            <path d="M3 9h18"></path>
            <path d="M9 21V9"></path>
            <path d="M7 7h.01"></path>
            <path d="M7 11h.01"></path>
            <path d="M7 15h.01"></path>
            <path d="M11 7h.01"></path>
            <path d="M11 11h.01"></path>
            <path d="M11 15h.01"></path>
            <path d="M15 7h.01"></path>
            <path d="M15 11h.01"></path>
            <path d="M15 15h.01"></path>
            <path d="M19 7h.01"></path>
            <path d="M19 11h.01"></path>
            <path d="M19 15h.01"></path>
        </symbol>
        <symbol id="icon-check-circle" viewBox="0 0 24 24" fill="none" stroke="currentColor" stroke-width="2">
            <circle cx="12" cy="12" r="10"></circle>
            <polyline points="16 10 10 16 8 14"></polyline>
        </symbol>
        <symbol id="icon-x-circle" viewBox="0 0 24 24" fill="none" stroke="currentColor" stroke-width="2">
            <circle cx="12" cy="12" r="10"></circle>
            <line x1="15" y1="9" x2="9" y2="15"></line>
            <line x1="9" y1="9" x2="15" y2="15"></line>
        </symbol>
        <symbol id="icon-alert-circle" viewBox="0 0 24 24" fill="none" stroke="currentColor" stroke-width="2">
            <circle cx="12" cy="12" r="10"></circle>
            <line x1="12" y1="8" x2="12" y2="12"></line>
            <line x1="12" y1="16" x2="12.01" y2="16"></line>
        </symbol>
        <symbol id="icon-edit-2" viewBox="0 0 24 24" fill="none" stroke="currentColor" stroke-width="2">
            <path d="M17 3a2.828 2.828 0 1 1 4 4L7.5 20.5 2 22l1.5-5.5L17 3z"></path>
        </symbol>
        <symbol id="icon-trash-2" viewBox="0 0 24 24" fill="none" stroke="currentColor" stroke-width="2">
            <polyline points="3 6 5 6 21 6"></polyline>
            <path d="M19 6v14a2 2 0 0 1-2 2H7a2 2 0 0 1-2-2V6m3 0V4a2 2 0 0 1 2-2h4a2 2 0 0 1 2 2v2"></path>
        </symbol>
        <symbol id="icon-shield" viewBox="0 0 24 24" fill="none" stroke="currentColor" stroke-width="2">
            <path d="M12 22s8-4 8-10V5l-8-3-8 3v7c0 6 8 10 8 10z"></path>
        </symbol>
        <symbol id="icon-refresh-cw" viewBox="0 0 24 24" fill="none" stroke="currentColor" stroke-width="2">
            <polyline points="23 4 23 10 17 10"></polyline>
            <polyline points="1 20 1 14 7 14"></polyline>
            <path d="M3.51 9a9 9 0 0 1 14.85-3.36L23 10M1 14l4.64 4.36A9 9 0 0 0 20.49 15"></path>
        </symbol>
        <symbol id="icon-users" viewBox="0 0 24 24" fill="none" stroke="currentColor" stroke-width="2">
            <path d="M17 21v-2a4 4 0 0 0-4-4H5a4 4 0 0 0-4 4v2"></path>
            <circle cx="9" cy="7" r="4"></circle>
            <path d="M23 21v-2a4 4 0 0 0-3-3.87"></path>
            <path d="M16 3.13a4 4 0 0 1 0 7.75"></path>
        </symbol>
        <symbol id="icon-layout-grid" viewBox="0 0 24 24" fill="none" stroke="currentColor" stroke-width="2">
            <rect x="3" y="3" width="7" height="7"></rect>
            <rect x="14" y="3" width="7" height="7"></rect>
            <rect x="14" y="14" width="7" height="7"></rect>
            <rect x="3" y="14" width="7" height="7"></rect>
        </symbol>
        <symbol id="icon-layout-dashboard" viewBox="0 0 24 24" fill="none" stroke="currentColor" stroke-width="2">
            <rect x="3" y="3" width="7" height="7"></rect>
            <rect x="14" y="3" width="7" height="7"></rect>
            <rect x="14" y="14" width="7" height="7"></rect>
            <rect x="3" y="14" width="11" height="7"></rect>
        </symbol>
        <symbol id="icon-share-2" viewBox="0 0 24 24" fill="none" stroke="currentColor" stroke-width="2">
            <circle cx="18" cy="5" r="3"></circle>
            <circle cx="6" cy="12" r="3"></circle>
            <circle cx="18" cy="19" r="3"></circle>
            <line x1="8.59" y1="13.51" x2="15.42" y2="17.49"></line>
            <line x1="15.41" y1="6.51" x2="8.59" y2="10.49"></line>
        </symbol>
        <symbol id="icon-copy" viewBox="0 0 24 24" fill="none" stroke="currentColor" stroke-width="2">
            <rect x="9" y="9" width="13" height="13" rx="2" ry="2"></rect>
            <path d="M5 15H4a2 2 0 0 1-2-2V4a2 2 0 0 1 2-2h9a2 2 0 0 1 2 2v1"></path>
        </symbol>
        <symbol id="icon-save" viewBox="0 0 24 24" fill="none" stroke="currentColor" stroke-width="2">
            <path d="M19 21H5a2 2 0 0 1-2-2V5a2 2 0 0 1 2-2h11l5 5v11a2 2 0 0 1-2 2z"></path>
            <polyline points="17 21 17 13 7 13 7 21"></polyline>
            <polyline points="7 3 7 8 15 8"></polyline>
        </symbol>
        <symbol id="icon-send" viewBox="0 0 24 24" fill="none" stroke="currentColor" stroke-width="2">
            <path d="M21 15v4a2 2 0 0 1-2 2H5a2 2 0 0 1-2-2v-4"></path>
            <polyline points="17 8 12 3 7 8"></polyline>
            <line x1="12" y1="3" x2="12" y2="15"></line>
        </symbol>
        <symbol id="icon-printer" viewBox="0 0 24 24" fill="none" stroke="currentColor" stroke-width="2">
            <polyline points="6 9 6 2 18 2 18 9"></polyline>
            <path d="M6 18H4a2 2 0 0 1-2-2v-5a2 2 0 0 1 2-2h16a2 2 0 0 1 2 2v5a2 2 0 0 1-2 2h-2"></path>
            <rect x="6" y="14" width="12" height="8"></rect>
        </symbol>
        <symbol id="icon-filter" viewBox="0 0 24 24" fill="none" stroke="currentColor" stroke-width="2">
            <polygon points="22 3 16 10 4 10 4 14 16 14 22 7 22 3"></polygon>
        </symbol>
        <symbol id="icon-arrow-up-down" viewBox="0 0 24 24" fill="none" stroke="currentColor" stroke-width="2">
            <polyline points="21 16 12 7 3 16"></polyline>
            <line x1="12" y1="20" x2="12" y2="7"></line>
        </symbol>
        <symbol id="icon-chevron-down" viewBox="0 0 24 24" fill="none" stroke="currentColor" stroke-width="2">
            <polyline points="6 9 12 15 18 9"></polyline>
        </symbol>
        <symbol id="icon-chevron-up" viewBox="0 0 24 24" fill="none" stroke="currentColor" stroke-width="2">
            <polyline points="6 15 12 9 18 15"></polyline>
        </symbol>
        <symbol id="icon-check" viewBox="0 0 24 24" fill="none" stroke="currentColor" stroke-width="2">
            <polyline points="20 6 9 17 4 12"></polyline>
        </symbol>
        <symbol id="icon-help-circle" viewBox="0 0 24 24" fill="none" stroke="currentColor" stroke-width="2">
            <circle cx="12" cy="12" r="10"></circle>
            <path d="M9.09 9a3 3 0 0 1 5.83 1c0 2-3 3-3 3"></path>
            <line x1="12" y1="17" x2="12.01" y2="17"></line>
        </symbol>
        <symbol id="icon-map-pin" viewBox="0 0 24 24" fill="none" stroke="currentColor" stroke-width="2">
            <path d="M20 10c0 6-8 12-8 12s-8-6-8-12a8 8 0 0 1 16 0z"></path>
            <circle cx="12" cy="10" r="3"></circle>
        </symbol>
        <symbol id="icon-git-branch" viewBox="0 0 24 24" fill="none" stroke="currentColor" stroke-width="2">
            <line x1="6" y1="3" x2="6" y2="15"></line>
            <circle cx="18" cy="6" r="3"></circle>
            <circle cx="6" cy="18" r="3"></circle>
            <path d="M18 9a9 9 0 0 1-9 9"></path>
        </symbol>
        <symbol id="icon-git-commit" viewBox="0 0 24 24" fill="none" stroke="currentColor" stroke-width="2">
            <circle cx="12" cy="12" r="4"></circle>
            <line x1="12" y1="1" x2="12" y2="9"></line>
            <line x1="12" y1="15" x2="12" y2="23"></line>
            <line x1="4.22" y1="4.22" x2="5.64" y2="5.64"></line>
            <line x1="18.36" y1="18.36" x2="19.78" y2="19.78"></line>
            <line x1="15" y1="9" x2="9" y2="15"></line>
            <line x1="9" y1="9" x2="15" y2="15"></line>
        </symbol>
        <symbol id="icon-menu" viewBox="0 0 24 24" fill="none" stroke="currentColor" stroke-width="2">
            <line x1="3" y1="12" x2="21" y2="12"></line>
            <line x1="3" y1="6" x2="21" y2="6"></line>
            <line x1="3" y1="18" x2="21" y2="18"></line>
        </symbol>
    </defs>
</svg>
